<svg width="15" height="15" viewBox="0 0 15 15" fill="none" xmlns="http://www.w3.org/2000/svg">
<path d="M12.8482 2.94975C10.1138 0.215411 5.68303 0.215411 2.94869 2.94975C0.214354 5.68408 0.214354 10.1149 2.94869 12.8492C5.68303 15.5836 10.1138 15.5836 12.8482 12.8492C15.5825 10.1149 15.5825 5.68408 12.8482 2.94975ZM10.2136 11.3324C10.0819 11.4641 9.86636 11.4641 9.73463 11.3324L7.89844 9.49619L6.06224 11.3324C5.93051 11.4641 5.71496 11.4641 5.58323 11.3324L4.46555 10.2147C4.33382 10.083 4.33382 9.86742 4.46555 9.73569L6.30174 7.89949L4.46555 6.0633C4.33382 5.93157 4.33382 5.71602 4.46555 5.58429L5.58323 4.46661C5.71496 4.33488 5.93051 4.33488 6.06224 4.46661L7.89844 6.3028L9.73463 4.46661C9.86636 4.33488 10.0819 4.33488 10.2136 4.46661L11.3313 5.58429C11.4631 5.71602 11.4631 5.93157 11.3313 6.0633L9.49513 7.89949L11.3313 9.73569C11.4631 9.86742 11.4631 10.083 11.3313 10.2147L10.2136 11.3324Z" fill="#E12727"/>
</svg>
