<svg width="10" height="14" viewBox="0 0 10 14" fill="none" xmlns="http://www.w3.org/2000/svg">
<path d="M9.375 0H0.625C0.279818 0 0 0.293809 0 0.65625V1.09375C0 1.45619 0.279818 1.75 0.625 1.75C0.625 4.23732 1.95354 6.33648 3.77193 7C1.95354 7.66352 0.625 9.76268 0.625 12.25C0.279818 12.25 0 12.5438 0 12.9062V13.3438C0 13.7062 0.279818 14 0.625 14H9.375C9.72018 14 10 13.7062 10 13.3438V12.9062C10 12.5438 9.72018 12.25 9.375 12.25C9.375 9.76268 8.04646 7.66352 6.22807 7C8.04646 6.33648 9.375 4.23732 9.375 1.75C9.72018 1.75 10 1.45619 10 1.09375V0.65625C10 0.293809 9.72018 0 9.375 0ZM7.41984 10.5H2.58021C3.02445 9.22039 3.93687 8.3125 5 8.3125C6.06305 8.3125 6.97557 9.2202 7.41984 10.5ZM7.42034 3.5H2.58016C2.39552 2.96811 2.29167 2.37202 2.29167 1.75H7.70833C7.70833 2.37357 7.60451 2.96918 7.42034 3.5Z" fill="#1890FF"/>
</svg>
