<svg width="14" height="13" viewBox="0 0 14 13" fill="none" xmlns="http://www.w3.org/2000/svg">
<path d="M13.8424 10.6948C14.2911 11.4724 13.7279 12.4444 12.8319 12.4444H1.16799C0.270212 12.4444 -0.290323 11.4709 0.157434 10.6948L5.98945 0.582969C6.4383 -0.195028 7.56251 -0.193618 8.01056 0.582969L13.8424 10.6948ZM7 8.60416C6.38252 8.60416 5.88195 9.10474 5.88195 9.72222C5.88195 10.3397 6.38252 10.8403 7 10.8403C7.61749 10.8403 8.11806 10.3397 8.11806 9.72222C8.11806 9.10474 7.61749 8.60416 7 8.60416ZM5.93851 4.58534L6.11881 7.89089C6.12724 8.04557 6.25514 8.16666 6.41004 8.16666H7.58997C7.74487 8.16666 7.87277 8.04557 7.8812 7.89089L8.0615 4.58534C8.07062 4.41826 7.93759 4.27778 7.77027 4.27778H6.22971C6.06239 4.27778 5.92939 4.41826 5.93851 4.58534Z" fill="#A6AAAE"/>
</svg>
