<svg width="24" height="30" viewBox="0 0 24 30" fill="none" xmlns="http://www.w3.org/2000/svg">
<path d="M15 27.3987L21.3435 21H15V27.3987Z" fill="#1890FF"/>
<path d="M18.6869 0H4.31311C3.1681 0.00320825 2.07107 0.46427 1.26255 1.28209C0.454028 2.09991 -4.41747e-06 3.20775 0 4.36272V24.6615C0.00317042 25.8144 0.458609 26.9191 1.26679 27.7343C2.07496 28.5495 3.17017 29.0089 4.31311 29.0121H12.9369V21.7506C12.9369 20.9792 13.2407 20.2394 13.7814 19.694C14.3222 19.1486 15.0556 18.8421 15.8203 18.8421H23.0096V4.35061C23.0064 3.19606 22.5497 2.08986 21.7394 1.27438C20.9292 0.458903 19.8315 0.000636963 18.6869 0ZM15.8035 14.5012H7.18691C6.80455 14.5012 6.43783 14.348 6.16746 14.0753C5.89709 13.8025 5.7452 13.4327 5.7452 13.047C5.7452 12.6613 5.89709 12.2914 6.16746 12.0187C6.43783 11.7459 6.80455 11.5927 7.18691 11.5927H15.8107C16.1931 11.5927 16.5598 11.7459 16.8301 12.0187C17.1005 12.2914 17.2524 12.6613 17.2524 13.047C17.2524 13.4327 17.1005 13.8025 16.8301 14.0753C16.5598 14.348 16.1931 14.5012 15.8107 14.5012H15.8035ZM15.8035 8.70121H7.18691C6.80455 8.70121 6.43783 8.54799 6.16746 8.27527C5.89709 8.00255 5.7452 7.63266 5.7452 7.24697C5.7452 6.86128 5.89709 6.49139 6.16746 6.21867C6.43783 5.94595 6.80455 5.79273 7.18691 5.79273H15.8107C16.1931 5.79273 16.5598 5.94595 16.8301 6.21867C17.1005 6.49139 17.2524 6.86128 17.2524 7.24697C17.2524 7.63266 17.1005 8.00255 16.8301 8.27527C16.5598 8.54799 16.1931 8.70121 15.8107 8.70121H15.8035Z" fill="#1890FF"/>
</svg>
