<svg width="11" height="14" viewBox="0 0 11 14" fill="none" xmlns="http://www.w3.org/2000/svg">
<path d="M10.5 0H2.125C2.05625 0 2 0.05625 2 0.125V1C2 1.06875 2.05625 1.125 2.125 1.125H9.875V11.875C9.875 11.9438 9.93125 12 10 12H10.875C10.9438 12 11 11.9438 11 11.875V0.5C11 0.223437 10.7766 0 10.5 0ZM8.5 2H0.5C0.223438 2 0 2.22344 0 2.5V10.7922C0 10.925 0.0531249 11.0516 0.146875 11.1453L2.85469 13.8531C2.88906 13.8875 2.92813 13.9156 2.97031 13.9391V13.9688H3.03594C3.09063 13.9891 3.14844 14 3.20781 14H8.5C8.77656 14 9 13.7766 9 13.5V2.5C9 2.22344 8.77656 2 8.5 2ZM2.96875 12.3781L1.62344 11.0312H2.96875V12.3781ZM7.875 12.875H3.96875V10.6562C3.96875 10.3109 3.68906 10.0312 3.34375 10.0312H1.125V3.125H7.875V12.875Z" fill="#1890FF"/>
</svg>
