<svg width="43" height="33" viewBox="0 0 43 33" fill="none" xmlns="http://www.w3.org/2000/svg">
<path d="M20.9299 8.56107L7.16723 19.7477V31.8213C7.16723 32.1339 7.29307 32.4337 7.51705 32.6548C7.74104 32.8758 8.04482 33 8.36159 33L16.7265 32.9786C17.0423 32.9771 17.3445 32.8522 17.5672 32.6313C17.7899 32.4104 17.9149 32.1115 17.9149 31.7999V24.7491C17.9149 24.4365 18.0407 24.1367 18.2647 23.9156C18.4887 23.6946 18.7925 23.5704 19.1093 23.5704H23.8867C24.2034 23.5704 24.5072 23.6946 24.7312 23.9156C24.9552 24.1367 25.081 24.4365 25.081 24.7491V31.7948C25.0805 31.9499 25.1111 32.1035 25.1709 32.247C25.2307 32.3904 25.3186 32.5208 25.4295 32.6306C25.5405 32.7405 25.6723 32.8276 25.8175 32.8871C25.9626 32.9466 26.1182 32.9772 26.2754 32.9772L34.6373 33C34.9541 33 35.2579 32.8758 35.4819 32.6548C35.7059 32.4337 35.8317 32.1339 35.8317 31.8213V19.7396L22.072 8.56107C21.9102 8.43239 21.7087 8.36221 21.501 8.36221C21.2932 8.36221 21.0917 8.43239 20.9299 8.56107ZM42.6694 16.1644L36.4289 11.0879V0.884027C36.4289 0.649569 36.3345 0.424713 36.1665 0.258926C35.9985 0.0931385 35.7707 0 35.5331 0H31.3529C31.1153 0 30.8875 0.0931385 30.7195 0.258926C30.5515 0.424713 30.4571 0.649569 30.4571 0.884027V6.23313L23.774 0.806675C23.1326 0.28582 22.3278 0.0010412 21.4972 0.0010412C20.6666 0.0010412 19.8618 0.28582 19.2205 0.806675L0.325087 16.1644C0.234381 16.2384 0.159337 16.3293 0.104241 16.4319C0.049146 16.5346 0.0150793 16.6469 0.00398776 16.7625C-0.00710375 16.8781 0.00499737 16.9948 0.0395997 17.1058C0.074202 17.2168 0.130627 17.32 0.205652 17.4094L2.10915 19.6932C2.18397 19.783 2.276 19.8573 2.37997 19.9119C2.48394 19.9666 2.59781 20.0005 2.71505 20.0116C2.8323 20.0228 2.95063 20.011 3.06326 19.9769C3.17589 19.9429 3.28061 19.8873 3.37143 19.8133L20.9299 5.54064C21.0917 5.41196 21.2932 5.34179 21.501 5.34179C21.7087 5.34179 21.9102 5.41196 22.072 5.54064L39.6312 19.8133C39.7219 19.8873 39.8264 19.943 39.9389 19.9771C40.0514 20.0113 40.1696 20.0232 40.2867 20.0123C40.4039 20.0013 40.5177 19.9677 40.6217 19.9133C40.7257 19.859 40.8178 19.7849 40.8928 19.6954L42.7963 17.4117C42.8712 17.3217 42.9274 17.2179 42.9616 17.1065C42.9958 16.995 43.0073 16.8779 42.9955 16.762C42.9837 16.6461 42.9488 16.5337 42.8929 16.4311C42.8369 16.3285 42.7609 16.2379 42.6694 16.1644Z" fill="#F0F2F5"/>
</svg>
