<svg width="548" height="315" viewBox="0 0 548 315" fill="none" xmlns="http://www.w3.org/2000/svg">
<path d="M63.2432 87.0356C63.2438 88.3807 62.9793 89.7127 62.4648 90.9557C61.9503 92.1986 61.1959 93.3281 60.2446 94.2796C59.2934 95.2311 58.1639 95.9861 56.9207 96.5014C55.6775 97.0167 54.345 97.2822 52.9991 97.2828C51.6525 97.2834 50.319 97.0187 49.0748 96.504C47.8306 95.9892 46.7 95.2344 45.7478 94.2828C44.7956 93.3311 44.0404 92.2013 43.5253 90.9577C43.0103 89.7142 42.7455 88.3815 42.7461 87.0356C42.7461 85.6902 43.0113 84.3579 43.5266 83.1149C44.042 81.8719 44.7972 80.7426 45.7494 79.7914C46.7015 78.8402 47.8319 78.0858 49.0758 77.5714C50.3197 77.0569 51.6529 76.7924 52.9991 76.793C55.7165 76.7942 58.3221 77.8738 60.2431 79.7946C62.1641 81.7153 63.2432 84.3199 63.2432 87.0356Z" fill="#00101E"/>
<path d="M20.5061 138.776C20.5049 141.494 19.4243 144.1 17.5017 146.021C15.5792 147.942 12.972 149.022 10.2531 149.024C7.53378 149.024 4.92588 147.944 3.00305 146.022C1.08023 144.101 0 141.494 0 138.776C0 136.059 1.08023 133.452 3.00305 131.531C4.92588 129.609 7.53378 128.529 10.2531 128.529C12.972 128.53 15.5792 129.61 17.5017 131.532C19.4243 133.453 20.5049 136.059 20.5061 138.776Z" fill="#00101E"/>
<path d="M160.197 49.0329C160.197 51.7506 159.117 54.357 157.194 56.2787C155.271 58.2005 152.663 59.2801 149.944 59.2801C147.225 59.2789 144.619 58.1987 142.697 56.2771C140.775 54.3556 139.695 51.7498 139.695 49.0329C139.695 47.6872 139.959 46.3546 140.474 45.1111C140.989 43.8677 141.744 42.7377 142.695 41.7858C143.647 40.8338 144.777 40.0785 146.021 39.563C147.264 39.0475 148.597 38.7818 149.944 38.7813C151.291 38.7812 152.624 39.0464 153.869 39.5617C155.113 40.0769 156.243 40.8322 157.195 41.7842C158.148 42.7362 158.903 43.8663 159.418 45.1101C159.933 46.3539 160.198 47.6869 160.197 49.0329Z" fill="#00101E"/>
<path d="M59.4678 6.35099C59.4684 7.18539 59.3044 8.01173 58.9853 8.78279C58.6662 9.55384 58.1982 10.2545 57.6081 10.8447C57.0179 11.435 56.3173 11.9032 55.546 12.2226C54.7747 12.5421 53.948 12.7065 53.1131 12.7065C51.4266 12.7065 49.8091 12.0369 48.6165 10.845C47.4239 9.65311 46.7539 8.03657 46.7539 6.35099C46.7539 5.51659 46.9185 4.69037 47.2381 3.91954C47.5578 3.14871 48.0263 2.44837 48.6168 1.85857C49.2074 1.26876 49.9084 0.801054 50.6799 0.482152C51.4514 0.16325 52.2782 -0.000590178 53.1131 1.59736e-06C54.7985 1.59736e-06 56.4148 0.66912 57.6065 1.86016C58.7982 3.0512 59.4678 4.6666 59.4678 6.35099Z" fill="#00101E"/>
<path d="M111.4 49.1776C111.4 50.7485 110.776 52.255 109.665 53.3658C108.553 54.4766 107.046 55.1007 105.474 55.1007C103.902 55.1007 102.394 54.4768 101.282 53.3661C100.17 52.2554 99.5442 50.7489 99.543 49.1776C99.543 47.6055 100.168 46.0978 101.28 44.9861C102.392 43.8745 103.901 43.25 105.474 43.25C107.046 43.2512 108.554 43.8762 109.665 44.9877C110.776 46.0992 111.4 47.6063 111.4 49.1776Z" fill="#00101E"/>
<path d="M22.1271 93.7885C22.1271 95.3606 21.5022 96.8683 20.3899 97.9799C19.2776 99.0916 17.7691 99.7161 16.1961 99.7161C14.6239 99.7149 13.1165 99.0898 12.0051 97.9783C10.8938 96.8668 10.2695 95.3598 10.2695 93.7885C10.2731 92.2199 10.8992 90.7168 12.0102 89.609C13.1213 88.5011 14.6266 87.8789 16.1961 87.8789C17.7663 87.8777 19.2728 88.4994 20.3848 89.6074C21.4969 90.7154 22.1235 92.2191 22.1271 93.7885Z" fill="#00101E"/>
<path d="M38.9785 55.0956C38.9773 56.6669 38.352 58.1734 37.2398 59.2841C36.1277 60.3948 34.6198 61.0186 33.0475 61.0186C32.2693 61.0186 31.4986 60.8654 30.7796 60.5678C30.0606 60.2701 29.4073 59.8338 28.8569 59.2838C28.3066 58.7338 27.8701 58.0809 27.5722 57.3622C27.2744 56.6436 27.1211 55.8734 27.1211 55.0956C27.1211 53.5242 27.7453 52.0172 28.8566 50.9057C29.9679 49.7942 31.4753 49.1692 33.0475 49.168C34.6205 49.168 36.1292 49.7925 37.2415 50.9041C38.3537 52.0158 38.9785 53.5235 38.9785 55.0956Z" fill="#00101E"/>
<path d="M125.521 22.7727C125.521 24.344 124.897 25.851 123.786 26.9625C122.675 28.0741 121.167 28.6991 119.595 28.7003C118.022 28.7003 116.513 28.0758 115.401 26.9641C114.289 25.8525 113.664 24.3448 113.664 22.7727C113.664 21.9945 113.818 21.2239 114.116 20.505C114.414 19.7861 114.851 19.1329 115.401 18.5829C115.952 18.0328 116.606 17.5966 117.326 17.2992C118.045 17.0018 118.816 16.849 119.595 16.8496C121.167 16.8496 122.674 17.4737 123.786 18.5845C124.897 19.6952 125.521 21.2018 125.521 22.7727Z" fill="#00101E"/>
<path d="M175.768 88.3285C175.768 88.0717 175.768 87.8105 175.768 87.5492C175.768 82.8079 173.883 78.2607 170.529 74.908C167.174 71.5554 162.624 69.6719 157.88 69.6719C153.136 69.6719 148.586 71.5554 145.232 74.908C141.877 78.2607 139.992 82.8079 139.992 87.5492C139.994 88.2341 140.035 88.9184 140.114 89.5987C137.996 90.0131 135.9 90.4995 133.827 91.0175C133.21 87.7494 131.471 84.7992 128.909 82.6766C126.348 80.5539 123.125 79.3922 119.797 79.392C117.922 79.392 116.066 79.7612 114.334 80.4783C112.602 81.1955 111.028 82.2466 109.703 83.5717C108.378 84.8968 107.326 86.4699 106.609 88.2011C105.892 89.9324 105.523 91.7878 105.524 93.6615C105.522 96.3578 106.286 98.9992 107.728 101.278C105.562 102.458 103.434 103.709 101.346 105.03C98.8374 102.254 95.7729 100.036 92.3514 98.5186C88.9298 97.0016 85.2276 96.22 81.4846 96.2244C74.3801 96.2304 67.5687 99.0552 62.5471 104.078C57.5256 109.101 54.705 115.911 54.705 123.011C54.6989 126.901 55.5426 130.745 57.1773 134.274C58.8121 137.804 61.1983 140.935 64.1693 143.447C62.8714 145.66 61.6469 147.912 60.4962 150.203C59.3508 147.746 57.5291 145.666 55.244 144.207C52.9589 142.747 50.3051 141.968 47.5932 141.961C45.7184 141.961 43.862 142.33 42.13 143.047C40.3981 143.764 38.8243 144.815 37.4989 146.14C36.1734 147.465 35.1222 149.038 34.4052 150.77C33.6881 152.501 33.3194 154.356 33.32 156.23C33.32 160.013 34.8238 163.642 37.5005 166.317C40.1773 168.992 43.8077 170.495 47.5932 170.495C49.4658 170.496 51.3203 170.129 53.051 169.414C51.8728 173.515 50.9279 177.679 50.2207 181.886C49.3448 181.756 48.4606 181.69 47.5751 181.688C42.831 181.688 38.2813 183.571 34.9267 186.924C31.5721 190.277 29.6875 194.824 29.6875 199.565C29.6875 204.307 31.5721 208.854 34.9267 212.207C38.2813 215.559 42.831 217.443 47.5751 217.443C48.3376 217.441 49.0993 217.391 49.8556 217.294C57.8643 272.007 105.01 314.014 161.977 314.014C224.563 314.014 275.306 263.305 275.306 200.75C275.288 142.87 231.842 95.1344 175.768 88.3285ZM209.646 258.85L209.605 258.882C207.641 260.532 205.587 262.074 203.453 263.499L203.39 263.539C202.894 263.868 202.39 264.192 201.885 264.512L201.686 264.638C201.236 264.931 200.74 265.219 200.262 265.503L200.046 265.629C199.55 265.922 199.054 266.206 198.554 266.485C198.506 266.508 198.46 266.533 198.414 266.561C188.445 272.064 177.28 275.048 165.893 275.255C165.451 275.363 164.996 275.413 164.541 275.403C148.049 275.424 132.083 269.607 119.473 258.985L119.351 258.882C118.936 258.535 118.531 258.179 118.125 257.823L117.81 257.539C117.467 257.233 117.125 256.927 116.791 256.612L116.395 256.247C116.075 255.945 115.759 255.634 115.444 255.346L115.065 254.977C114.677 254.589 114.294 254.197 113.916 253.805L113.794 253.679C113.343 253.229 112.924 252.756 112.501 252.283H112.478C112.059 251.833 111.649 251.351 111.243 250.878L111.18 250.801C105.169 243.767 100.611 235.613 97.7692 226.809C94.9276 218.005 93.8585 208.726 94.6236 199.507C95.3887 190.288 97.9729 181.312 102.227 173.096C106.481 164.881 112.321 157.588 119.41 151.64L119.446 151.609C121.412 149.958 123.467 148.417 125.602 146.992L125.661 146.951C126.156 146.622 126.661 146.298 127.166 145.978C127.234 145.938 127.301 145.897 127.364 145.852C127.837 145.559 128.311 145.271 128.788 144.987L129.009 144.861C129.5 144.568 129.996 144.285 130.501 144.005L130.641 143.929C140.602 138.404 151.763 135.398 163.153 135.173C163.595 135.064 164.05 135.014 164.505 135.024C180.997 135.003 196.964 140.819 209.573 151.442L209.695 151.546C210.11 151.892 210.52 152.248 210.925 152.604L211.241 152.888C211.584 153.194 211.922 153.5 212.26 153.816L212.652 154.181C212.972 154.487 213.292 154.793 213.607 155.081L213.981 155.446C214.369 155.834 214.752 156.221 215.126 156.617C215.171 156.658 215.211 156.703 215.252 156.743C215.703 157.194 216.122 157.667 216.545 158.14L216.573 158.162C216.987 158.625 217.397 159.093 217.803 159.568L217.866 159.64C223.878 166.674 228.437 174.828 231.279 183.632C234.122 192.436 235.192 201.716 234.427 210.935C233.662 220.155 231.078 229.131 226.824 237.348C222.57 245.564 216.73 252.857 209.641 258.805L209.646 258.85Z" fill="#00101E"/>
<path d="M203.493 205.15C203.497 198.42 201.755 191.803 198.437 185.946C195.12 180.088 190.34 175.19 184.565 171.729L184.209 171.589C182.841 170.759 181.408 170.041 179.923 169.445C175.249 167.306 170.008 166.328 164.532 166.328C160.023 166.324 155.546 167.096 151.3 168.612C150.57 168.891 149.849 169.188 149.141 169.513C147.652 170.107 146.215 170.824 144.846 171.657L144.625 171.742C138.823 175.191 134.016 180.086 130.672 185.947C127.329 191.809 125.564 198.437 125.551 205.184C125.537 211.931 127.275 218.566 130.595 224.441C133.914 230.316 138.702 235.23 144.49 238.702L144.846 238.842C146.214 239.673 147.647 240.39 149.132 240.986C153.81 243.126 159.047 244.103 164.523 244.103C169.033 244.107 173.511 243.334 177.759 241.819C178.49 241.54 179.211 241.243 179.914 240.918C181.399 240.325 182.833 239.61 184.2 238.779L184.421 238.693C190.25 235.25 195.077 230.342 198.423 224.458C201.769 218.574 203.517 211.918 203.493 205.15Z" fill="#00101E"/>
<path d="M338.324 205.708H317.971V236.747C317.971 241.185 316.919 244.551 314.816 246.846C313.823 247.959 312.599 248.844 311.229 249.437C309.859 250.031 308.377 250.319 306.884 250.282C303.54 250.282 300.845 249.149 298.799 246.882C296.753 244.614 295.731 241.286 295.734 236.896V152.387C295.734 147.498 296.857 144.008 299.101 141.915C301.345 139.822 304.912 138.771 309.8 138.762H338.31C346.744 138.762 353.23 139.41 357.766 140.708C362.072 141.854 366.054 143.978 369.403 146.914C372.683 149.823 375.233 153.461 376.848 157.535C378.603 162.038 379.468 166.838 379.395 171.67C379.395 182.837 375.952 191.301 369.065 197.06C362.179 202.82 351.932 205.702 338.324 205.708ZM332.938 155.441H317.971V188.957H332.938C338.175 188.957 342.553 188.409 346.071 187.313C349.59 186.217 352.271 184.415 354.116 181.908C355.958 179.416 356.88 176.15 356.883 172.111C356.883 167.28 355.462 163.341 352.62 160.297C349.426 157.059 342.865 155.441 332.938 155.441Z" fill="#00101E"/>
<path d="M442.341 238.77C437.401 242.614 432.624 245.494 428.009 247.41C423.394 249.325 418.219 250.285 412.483 250.288C407.243 250.288 402.64 249.253 398.674 247.184C394.894 245.288 391.719 242.374 389.507 238.77C387.382 235.306 386.268 231.317 386.289 227.253C386.289 221.674 388.061 216.913 391.603 212.97C395.145 209.027 400.01 206.385 406.196 205.043C407.494 204.742 410.712 204.07 415.85 203.025C420.988 201.98 425.389 201.019 429.055 200.142C432.723 199.271 436.703 198.22 440.993 196.989C440.741 191.602 439.656 187.65 437.739 185.134C435.822 182.618 431.843 181.359 425.801 181.359C420.612 181.359 416.706 182.082 414.083 183.526C411.329 185.1 409.013 187.338 407.345 190.035C406.121 192.007 404.797 193.916 403.379 195.755C402.607 196.68 400.955 197.141 398.422 197.138C396.231 197.177 394.107 196.389 392.473 194.931C391.661 194.236 391.015 193.368 390.581 192.392C390.148 191.415 389.938 190.355 389.967 189.287C389.967 185.683 391.239 182.193 393.784 178.814C396.329 175.436 400.295 172.644 405.682 170.437C411.066 168.241 417.776 167.145 425.81 167.148C434.79 167.148 441.851 168.208 446.992 170.328C452.133 172.448 455.762 175.801 457.88 180.386C459.984 184.972 461.044 191.054 461.062 198.633C461.062 203.42 461.049 207.484 461.022 210.826C460.995 214.168 460.957 217.881 460.909 221.965C460.947 226.039 461.591 230.084 462.82 233.969C464.091 238.137 464.726 240.817 464.726 242.009C464.726 244.111 463.741 246.019 461.77 247.734C459.938 249.398 457.549 250.317 455.073 250.31C452.969 250.31 450.899 249.327 448.862 247.36C446.825 245.393 444.651 242.53 442.341 238.77ZM440.989 209.232C437.984 210.328 433.628 211.487 427.919 212.709C422.21 213.931 418.258 214.832 416.062 215.411C413.733 216.046 411.576 217.196 409.752 218.776C407.757 220.449 406.759 222.779 406.759 225.767C406.743 227.257 407.048 228.734 407.655 230.096C408.261 231.458 409.155 232.673 410.275 233.658C412.618 235.829 415.686 236.913 419.478 236.91C423.368 236.947 427.209 236.036 430.668 234.257C434.084 232.489 436.59 230.208 438.186 227.415C440.033 224.319 440.957 219.233 440.957 212.155L440.989 209.232Z" fill="#00101E"/>
<path d="M498.614 252.829L500.484 248.266L475.34 184.995C473.805 181.355 473.037 178.711 473.037 177.063C473.031 175.349 473.499 173.667 474.389 172.203C475.288 170.698 476.565 169.456 478.094 168.599C479.579 167.724 481.269 167.258 482.993 167.248C485.94 167.248 488.161 168.183 489.654 170.054C491.147 171.925 492.469 174.605 493.62 178.094L510.895 228.371L527.282 181.63C528.278 178.597 529.452 175.625 530.797 172.73C531.846 170.586 532.956 169.14 534.128 168.392C535.299 167.644 536.952 167.271 539.085 167.271C540.653 167.275 542.191 167.702 543.538 168.505C544.922 169.289 546.062 170.441 546.832 171.833C547.591 173.181 547.99 174.701 547.991 176.248C547.792 177.193 547.468 178.545 547.017 180.301C546.566 182.058 546.018 183.828 545.372 185.612L518.732 255.315C516.44 261.447 514.195 266.251 511.999 269.729C509.878 273.151 506.863 275.931 503.278 277.769C499.673 279.636 494.796 280.572 488.649 280.575C482.664 280.575 478.175 279.926 475.183 278.629C472.19 277.332 470.688 274.964 470.676 271.526C470.676 269.178 471.388 267.376 472.812 266.121C474.236 264.866 476.339 264.23 479.122 264.215C480.21 264.216 481.293 264.367 482.339 264.666C483.441 264.942 484.571 265.093 485.706 265.116C488.05 265.116 489.896 264.766 491.245 264.067C492.758 263.205 494.011 261.953 494.873 260.441C496.311 258.002 497.562 255.457 498.614 252.829Z" fill="#00101E"/>
</svg>
