<svg width="37" height="37" viewBox="0 0 37 37" fill="none" xmlns="http://www.w3.org/2000/svg">
<path d="M13.875 15.0312C13.875 13.7543 12.8394 12.7188 11.5625 12.7188H10.4062C7.85166 12.7188 5.78125 14.7892 5.78125 17.3438V20.8125C5.78125 23.3671 7.85166 25.4375 10.4062 25.4375H11.5625C12.8394 25.4375 13.875 24.4019 13.875 23.125V15.0312ZM26.5938 25.4375C29.1483 25.4375 31.2188 23.3671 31.2188 20.8125V17.3438C31.2188 14.7892 29.1483 12.7188 26.5938 12.7188H25.4375C24.1606 12.7188 23.125 13.7543 23.125 15.0312V23.125C23.125 24.4019 24.1606 25.4375 25.4375 25.4375H26.5938ZM18.5 0C8.17902 0 0.330977 8.58732 0 18.5V19.6562C0 20.2951 0.517422 20.8125 1.15625 20.8125H2.3125C2.95133 20.8125 3.46875 20.2951 3.46875 19.6562V18.5C3.46875 10.2119 10.2119 3.46875 18.5 3.46875C26.7881 3.46875 33.5312 10.2119 33.5312 18.5H33.5226C33.5284 18.6756 33.5312 30.4759 33.5312 30.4759C33.5312 32.1633 32.1633 33.5312 30.4759 33.5312H23.125C23.125 31.6155 21.572 30.0625 19.6562 30.0625H17.3438C15.428 30.0625 13.875 31.6155 13.875 33.5312C13.875 35.447 15.428 37 17.3438 37H30.4759C34.079 37 37 34.079 37 30.4759V18.5C36.669 8.58732 28.821 0 18.5 0Z" fill="white"/>
</svg>
