<svg width="29" height="31" viewBox="0 0 29 31" fill="none" xmlns="http://www.w3.org/2000/svg">
<path d="M26.7584 3.41602H2.20224C0.985974 3.41602 0 4.3979 0 5.60912V28.8071C0 30.0183 0.985974 31.0002 2.20224 31.0002H26.7584C27.9747 31.0002 28.9606 30.0183 28.9606 28.8071V5.60912C28.9606 4.3979 27.9747 3.41602 26.7584 3.41602Z" fill="#5E5E5E"/>
<path d="M1.72852 11.6357H27.2301V28.1242C27.2301 28.4562 27.0976 28.7747 26.8619 29.0095C26.6261 29.2443 26.3063 29.3762 25.9729 29.3762H3.24811C3.0486 29.3763 2.85102 29.3373 2.66666 29.2613C2.4823 29.1854 2.31477 29.074 2.17365 28.9335C2.03253 28.7931 1.92058 28.6263 1.84421 28.4428C1.76783 28.2592 1.72852 28.0625 1.72852 27.8638V11.6357Z" fill="white"/>
<path d="M7.80291 13.5342H5.60319C5.25603 13.5342 4.97461 13.8144 4.97461 14.1602V16.3507C4.97461 16.6965 5.25603 16.9767 5.60319 16.9767H7.80291C8.15007 16.9767 8.43149 16.6965 8.43149 16.3507V14.1602C8.43149 13.8144 8.15007 13.5342 7.80291 13.5342Z" fill="#5E5E5E"/>
<path d="M12.9865 13.5342H10.7868C10.4396 13.5342 10.1582 13.8144 10.1582 14.1602V16.3507C10.1582 16.6965 10.4396 16.9767 10.7868 16.9767H12.9865C13.3337 16.9767 13.6151 16.6965 13.6151 16.3507V14.1602C13.6151 13.8144 13.3337 13.5342 12.9865 13.5342Z" fill="#5E5E5E"/>
<path d="M18.1721 13.5342H15.9723C15.6252 13.5342 15.3438 13.8144 15.3438 14.1602V16.3507C15.3438 16.6965 15.6252 16.9767 15.9723 16.9767H18.1721C18.5192 16.9767 18.8006 16.6965 18.8006 16.3507V14.1602C18.8006 13.8144 18.5192 13.5342 18.1721 13.5342Z" fill="#5E5E5E"/>
<path d="M23.3576 13.5342H21.1579C20.8107 13.5342 20.5293 13.8144 20.5293 14.1602V16.3507C20.5293 16.6965 20.8107 16.9767 21.1579 16.9767H23.3576C23.7048 16.9767 23.9862 16.6965 23.9862 16.3507V14.1602C23.9862 13.8144 23.7048 13.5342 23.3576 13.5342Z" fill="#5E5E5E"/>
<path d="M7.80291 18.6992H5.60319C5.25603 18.6992 4.97461 18.9795 4.97461 19.3252V21.5158C4.97461 21.8615 5.25603 22.1418 5.60319 22.1418H7.80291C8.15007 22.1418 8.43149 21.8615 8.43149 21.5158V19.3252C8.43149 18.9795 8.15007 18.6992 7.80291 18.6992Z" fill="#5E5E5E"/>
<path d="M18.1721 18.6992H15.9723C15.6252 18.6992 15.3438 18.9795 15.3438 19.3252V21.5158C15.3438 21.8615 15.6252 22.1418 15.9723 22.1418H18.1721C18.5192 22.1418 18.8006 21.8615 18.8006 21.5158V19.3252C18.8006 18.9795 18.5192 18.6992 18.1721 18.6992Z" fill="#5E5E5E"/>
<path d="M23.3576 18.6992H21.1579C20.8107 18.6992 20.5293 18.9795 20.5293 19.3252V21.5158C20.5293 21.8615 20.8107 22.1418 21.1579 22.1418H23.3576C23.7048 22.1418 23.9862 21.8615 23.9862 21.5158V19.3252C23.9862 18.9795 23.7048 18.6992 23.3576 18.6992Z" fill="#5E5E5E"/>
<path d="M7.80291 24.0352H5.60319C5.25603 24.0352 4.97461 24.3154 4.97461 24.6611V26.8517C4.97461 27.1974 5.25603 27.4777 5.60319 27.4777H7.80291C8.15007 27.4777 8.43149 27.1974 8.43149 26.8517V24.6611C8.43149 24.3154 8.15007 24.0352 7.80291 24.0352Z" fill="#5E5E5E"/>
<path d="M12.9865 24.0352H10.7868C10.4396 24.0352 10.1582 24.3154 10.1582 24.6611V26.8517C10.1582 27.1974 10.4396 27.4777 10.7868 27.4777H12.9865C13.3337 27.4777 13.6151 27.1974 13.6151 26.8517V24.6611C13.6151 24.3154 13.3337 24.0352 12.9865 24.0352Z" fill="#5E5E5E"/>
<path d="M18.1721 24.0352H15.9723C15.6252 24.0352 15.3438 24.3154 15.3438 24.6611V26.8517C15.3438 27.1974 15.6252 27.4777 15.9723 27.4777H18.1721C18.5192 27.4777 18.8006 27.1974 18.8006 26.8517V24.6611C18.8006 24.3154 18.5192 24.0352 18.1721 24.0352Z" fill="#5E5E5E"/>
<path d="M12.9865 18.6777H10.7868C10.4396 18.6777 10.1582 18.958 10.1582 19.3037V21.4943C10.1582 21.84 10.4396 22.1203 10.7868 22.1203H12.9865C13.3337 22.1203 13.6151 21.84 13.6151 21.4943V19.3037C13.6151 18.958 13.3337 18.6777 12.9865 18.6777Z" fill="#5E5E5E"/>
<path d="M6.95289 7.98693C7.9225 7.98693 8.70852 7.20416 8.70852 6.23858C8.70852 5.273 7.9225 4.49023 6.95289 4.49023C5.98329 4.49023 5.19727 5.273 5.19727 6.23858C5.19727 7.20416 5.98329 7.98693 6.95289 7.98693Z" fill="white"/>
<path d="M8.08754 1.12988C8.08754 0.505866 7.57957 0 6.95295 0C6.32633 0 5.81836 0.505866 5.81836 1.12988V6.25066C5.81836 6.87468 6.32633 7.38055 6.95295 7.38055C7.57957 7.38055 8.08754 6.87468 8.08754 6.25066V1.12988Z" fill="#5E5E5E"/>
<path d="M21.4841 7.98693C22.4537 7.98693 23.2398 7.20416 23.2398 6.23858C23.2398 5.273 22.4537 4.49023 21.4841 4.49023C20.5145 4.49023 19.7285 5.273 19.7285 6.23858C19.7285 7.20416 20.5145 7.98693 21.4841 7.98693Z" fill="white"/>
<path d="M22.6168 1.12988C22.6168 0.505866 22.1089 0 21.4822 0C20.8556 0 20.3477 0.505866 20.3477 1.12988V6.25066C20.3477 6.87468 20.8556 7.38055 21.4822 7.38055C22.1089 7.38055 22.6168 6.87468 22.6168 6.25066V1.12988Z" fill="#5E5E5E"/>
</svg>
