<svg width="29" height="31" viewBox="0 0 29 31" fill="none" xmlns="http://www.w3.org/2000/svg">
<path d="M26.7584 3.41602H2.20224C0.985974 3.41602 0 4.3979 0 5.60912V28.8071C0 30.0183 0.985974 31.0002 2.20224 31.0002H26.7584C27.9747 31.0002 28.9606 30.0183 28.9606 28.8071V5.60912C28.9606 4.3979 27.9747 3.41602 26.7584 3.41602Z" fill="#1890FF"/>
<path d="M1.72656 11.6357H27.2281V28.1242C27.2281 28.4562 27.0957 28.7747 26.8599 29.0095C26.6241 29.2443 26.3044 29.3762 25.971 29.3762H3.24616C3.04665 29.3763 2.84907 29.3373 2.66471 29.2613C2.48035 29.1854 2.31282 29.074 2.1717 28.9335C2.03058 28.7931 1.91863 28.6263 1.84225 28.4428C1.76587 28.2592 1.72656 28.0625 1.72656 27.8638V11.6357Z" fill="white"/>
<path d="M7.80486 13.5342H5.60514C5.25799 13.5342 4.97656 13.8144 4.97656 14.1602V16.3507C4.97656 16.6965 5.25799 16.9767 5.60514 16.9767H7.80486C8.15202 16.9767 8.43345 16.6965 8.43345 16.3507V14.1602C8.43345 13.8144 8.15202 13.5342 7.80486 13.5342Z" fill="#1890FF"/>
<path d="M12.9885 13.5342H10.7887C10.4416 13.5342 10.1602 13.8144 10.1602 14.1602V16.3507C10.1602 16.6965 10.4416 16.9767 10.7887 16.9767H12.9885C13.3356 16.9767 13.617 16.6965 13.617 16.3507V14.1602C13.617 13.8144 13.3356 13.5342 12.9885 13.5342Z" fill="#1890FF"/>
<path d="M18.1721 13.5342H15.9723C15.6252 13.5342 15.3438 13.8144 15.3438 14.1602V16.3507C15.3438 16.6965 15.6252 16.9767 15.9723 16.9767H18.1721C18.5192 16.9767 18.8006 16.6965 18.8006 16.3507V14.1602C18.8006 13.8144 18.5192 13.5342 18.1721 13.5342Z" fill="#1890FF"/>
<path d="M23.3596 13.5342H21.1598C20.8127 13.5342 20.5312 13.8144 20.5312 14.1602V16.3507C20.5312 16.6965 20.8127 16.9767 21.1598 16.9767H23.3596C23.7067 16.9767 23.9881 16.6965 23.9881 16.3507V14.1602C23.9881 13.8144 23.7067 13.5342 23.3596 13.5342Z" fill="#1890FF"/>
<path d="M7.80486 18.6992H5.60514C5.25799 18.6992 4.97656 18.9795 4.97656 19.3252V21.5158C4.97656 21.8615 5.25799 22.1418 5.60514 22.1418H7.80486C8.15202 22.1418 8.43345 21.8615 8.43345 21.5158V19.3252C8.43345 18.9795 8.15202 18.6992 7.80486 18.6992Z" fill="#1890FF"/>
<path d="M18.1721 18.6992H15.9723C15.6252 18.6992 15.3438 18.9795 15.3438 19.3252V21.5158C15.3438 21.8615 15.6252 22.1418 15.9723 22.1418H18.1721C18.5192 22.1418 18.8006 21.8615 18.8006 21.5158V19.3252C18.8006 18.9795 18.5192 18.6992 18.1721 18.6992Z" fill="#1890FF"/>
<path d="M23.3596 18.6992H21.1598C20.8127 18.6992 20.5312 18.9795 20.5312 19.3252V21.5158C20.5312 21.8615 20.8127 22.1418 21.1598 22.1418H23.3596C23.7067 22.1418 23.9881 21.8615 23.9881 21.5158V19.3252C23.9881 18.9795 23.7067 18.6992 23.3596 18.6992Z" fill="#1890FF"/>
<path d="M7.80486 24.0352H5.60514C5.25799 24.0352 4.97656 24.3154 4.97656 24.6611V26.8517C4.97656 27.1974 5.25799 27.4777 5.60514 27.4777H7.80486C8.15202 27.4777 8.43345 27.1974 8.43345 26.8517V24.6611C8.43345 24.3154 8.15202 24.0352 7.80486 24.0352Z" fill="#1890FF"/>
<path d="M12.9885 24.0352H10.7887C10.4416 24.0352 10.1602 24.3154 10.1602 24.6611V26.8517C10.1602 27.1974 10.4416 27.4777 10.7887 27.4777H12.9885C13.3356 27.4777 13.617 27.1974 13.617 26.8517V24.6611C13.617 24.3154 13.3356 24.0352 12.9885 24.0352Z" fill="#1890FF"/>
<path d="M18.1721 24.0352H15.9723C15.6252 24.0352 15.3438 24.3154 15.3438 24.6611V26.8517C15.3438 27.1974 15.6252 27.4777 15.9723 27.4777H18.1721C18.5192 27.4777 18.8006 27.1974 18.8006 26.8517V24.6611C18.8006 24.3154 18.5192 24.0352 18.1721 24.0352Z" fill="#1890FF"/>
<path d="M12.9885 18.6777H10.7887C10.4416 18.6777 10.1602 18.958 10.1602 19.3037V21.4943C10.1602 21.84 10.4416 22.1203 10.7887 22.1203H12.9885C13.3356 22.1203 13.617 21.84 13.617 21.4943V19.3037C13.617 18.958 13.3356 18.6777 12.9885 18.6777Z" fill="#1890FF"/>
<path d="M6.95094 7.98693C7.92055 7.98693 8.70657 7.20416 8.70657 6.23858C8.70657 5.273 7.92055 4.49023 6.95094 4.49023C5.98133 4.49023 5.19531 5.273 5.19531 6.23858C5.19531 7.20416 5.98133 7.98693 6.95094 7.98693Z" fill="white"/>
<path d="M8.08949 1.12988C8.08949 0.505866 7.58152 0 6.9549 0C6.32829 0 5.82031 0.505866 5.82031 1.12988V6.25066C5.82031 6.87468 6.32829 7.38055 6.9549 7.38055C7.58152 7.38055 8.08949 6.87468 8.08949 6.25066V1.12988Z" fill="#1890FF"/>
<path d="M21.4822 7.98693C22.4518 7.98693 23.2378 7.20416 23.2378 6.23858C23.2378 5.273 22.4518 4.49023 21.4822 4.49023C20.5126 4.49023 19.7266 5.273 19.7266 6.23858C19.7266 7.20416 20.5126 7.98693 21.4822 7.98693Z" fill="white"/>
<path d="M22.6168 1.12988C22.6168 0.505866 22.1089 0 21.4822 0C20.8556 0 20.3477 0.505866 20.3477 1.12988V6.25066C20.3477 6.87468 20.8556 7.38055 21.4822 7.38055C22.1089 7.38055 22.6168 6.87468 22.6168 6.25066V1.12988Z" fill="#1890FF"/>
</svg>
